<svg width="101" height="66" viewBox="0 0 101 66" fill="none" xmlns="http://www.w3.org/2000/svg">
<rect x="34.5" width="32" height="32" rx="4" fill="#15E087"/>
<path d="M48.2145 13.1428H52.2145V25.1428H48.2145V13.1428Z" fill="#00041A"/>
<path d="M50.2145 6.85712L56.4004 14.5714H44.0286L50.2145 6.85712Z" fill="#00041A"/>
<rect x="34.5" width="32" height="32" rx="4" fill="#15E087"/>
<path d="M48.2145 13.1428H52.2145V25.1428H48.2145V13.1428Z" fill="#00041A"/>
<path d="M50.2145 6.85712L56.4004 14.5714H44.0286L50.2145 6.85712Z" fill="#00041A"/>
<rect x="0.5" y="66" width="32" height="32" rx="4" transform="rotate(-90 0.5 66)" fill="#15E087"/>
<path d="M13.6429 52.2855L13.6429 48.2855L25.6429 48.2855L25.6429 52.2855L13.6429 52.2855Z" fill="#00041A"/>
<path d="M7.35718 50.2855L15.0715 44.0996L15.0715 56.4714L7.35718 50.2855Z" fill="#00041A"/>
<rect x="66.5" y="66" width="32" height="32" rx="4" transform="rotate(-180 66.5 66)" fill="#15E087"/>
<path d="M52.7855 52.8572L48.7855 52.8572L48.7855 40.8572L52.7855 40.8572L52.7855 52.8572Z" fill="#00041A"/>
<path d="M50.7855 59.1429L44.5996 51.4286L56.9714 51.4286L50.7855 59.1429Z" fill="#00041A"/>
<rect x="100.5" y="34" width="32" height="32" rx="4" transform="rotate(90 100.5 34)" fill="#15E087"/>
<path d="M87.3571 47.7145L87.3571 51.7145L75.3571 51.7145L75.3571 47.7145L87.3571 47.7145Z" fill="#00041A"/>
<path d="M93.6428 49.7145L85.9285 55.9004L85.9285 43.5286L93.6428 49.7145Z" fill="#00041A"/>
</svg>
