<svg width="64" height="64" viewBox="0 0 64 64" fill="none" xmlns="http://www.w3.org/2000/svg">
<g clip-path="url(#clip0_92_1110)">
<rect width="64" height="64" fill="FFFFFF00" pointer-events="all" />
<path d="M32.5102 6C42.733 6 51.0204 13.7451 51.0204 23.2992V55.5054L49.9824 53.054L47.0416 60L44.1006 53.054L41.1598 60L38.219 53.054L35.278 60L32.3372 53.054L29.3964 60L26.4554 53.054L23.5146 60L20.5738 53.054L17.6328 60L14.692 53.054L14 54.6882V23.2992C14 13.7451 22.2872 6 32.5102 6Z" fill="#ec232b"/>
<path d="M24.125 29.6249C25.989 29.6249 27.5 27.3583 27.5 24.5624C27.5 21.7665 25.989 19.4999 24.125 19.4999C22.261 19.4999 20.75 21.7665 20.75 24.5624C20.75 27.3583 22.261 29.6249 24.125 29.6249Z" fill="white" fill-opacity="0.97"/>
<path d="M41 29.6249C42.864 29.6249 44.375 27.3583 44.375 24.5624C44.375 21.7665 42.864 19.4999 41 19.4999C39.136 19.4999 37.625 21.7665 37.625 24.5624C37.625 27.3583 39.136 29.6249 41 29.6249Z" fill="white" fill-opacity="0.97"/>
<path d="M41 26.2499C41.932 26.2499 42.6875 25.4944 42.6875 24.5624C42.6875 23.6304 41.932 22.8749 41 22.8749C40.068 22.8749 39.3125 23.6304 39.3125 24.5624C39.3125 25.4944 40.068 26.2499 41 26.2499Z" fill="#444444"/>
<path d="M24.125 26.2499C25.057 26.2499 25.8125 25.4944 25.8125 24.5624C25.8125 23.6304 25.057 22.8749 24.125 22.8749C23.193 22.8749 22.4375 23.6304 22.4375 24.5624C22.4375 25.4944 23.193 26.2499 24.125 26.2499Z" fill="#444444"/>
</g>
<defs>
<clipPath id="clip0_92_1110">
<rect width="64" height="64" fill="white"/>
</clipPath>
</defs>
</svg>
