<svg width="41" height="47" viewBox="0 0 41 47" fill="none" xmlns="http://www.w3.org/2000/svg">
<path d="M14.7508 44.4713C14.7607 42.6572 14.7706 40.8431 14.7579 38.8786C14.5683 38.7199 14.4012 38.7117 14.2342 38.7034C12.6126 38.6918 10.9571 38.8855 9.3778 38.6179C7.28596 38.2634 5.73554 36.9785 4.90259 34.9067C4.18449 33.1207 3.17534 31.5492 1.47612 30.5433C1.34862 30.4678 1.20269 30.3892 1.1238 30.2717C0.9488 30.0112 0.619675 29.6107 0.699282 29.4739C0.848019 29.2182 1.23506 28.9808 1.53658 28.9621C2.81248 28.8832 3.93456 29.3739 4.85574 30.2286C5.46141 30.7905 6.01067 31.4466 6.46128 32.1429C8.35943 35.0759 11.2528 36.0219 14.4146 34.6644C14.6251 34.574 14.85 34.3631 14.9349 34.153C15.4204 32.9506 15.8655 31.7314 16.3402 30.4759C15.6299 30.3413 14.7089 30.1819 13.7942 29.9909C7.85821 28.7515 4.52487 25.1681 3.68978 19.1026C3.22973 15.7611 3.21687 12.4265 5.28737 9.58537C6.19891 8.33458 6.31218 7.23991 5.98242 5.83593C5.55738 4.02628 6.03812 2.25946 6.58672 0.532509C6.80298 -0.148251 7.36601 -0.00729113 7.85743 0.0584029C9.83472 0.322731 11.6239 1.12947 13.2668 2.21541C14.2729 2.88039 15.1561 3.06356 16.3837 2.7759C20.4598 1.82075 24.563 1.96667 28.6459 2.91154C29.0724 3.01024 29.6466 2.91995 30.0233 2.69528C31.97 1.53404 33.9224 0.435489 36.202 0.0610132C37.0733 -0.0821087 37.5225 0.151221 37.7593 1.02957C38.3325 3.15611 38.5427 5.27019 37.8949 7.42281C37.8172 7.68103 37.8709 8.09723 38.0346 8.29509C40.6229 11.424 40.993 15.0578 40.5 18.922C40.1943 21.3186 39.4986 23.5469 38.0393 25.4876C36.0983 28.0686 33.3741 29.2924 30.3569 29.9809C29.4668 30.184 28.5587 30.3059 27.5795 30.4791C27.9589 31.1366 28.4601 31.7233 28.6521 32.4001C28.9921 33.5985 29.2982 34.8458 29.3434 36.083C29.4435 38.8206 29.373 41.5645 29.3872 44.4323C29.4024 44.5587 29.3872 45.8785 29.3872 45.8785C29.3872 46.7587 29.3872 46.6112 29.3872 47C28 47 28.5 47 27 47C27 47 26.5 47 25.8282 47C23.3854 47 21.0623 47 18.5 47C17 47 16.5 47 14.7326 47C14.7326 46.2879 14.7508 46.1344 14.7508 45.7864C14.7508 45.7235 14.7508 44.4713 14.7508 44.4713Z" fill="#B9B9B9"/>
</svg>
