<svg width="101" height="66" viewBox="0 0 101 66" fill="none" xmlns="http://www.w3.org/2000/svg">
<rect x="25.5" width="32" height="32" rx="4" fill="#15E087"/>
<path d="M34.6176 24.8536L29.6915 7.39909H33.0921L36.237 20.2258H36.3989L39.7568 7.39909H42.8506L46.2171 20.2343H46.3705L49.5154 7.39909H52.9159L47.9898 24.8536H44.8705L41.3762 12.6065H41.2398L37.737 24.8536H34.6176Z" fill="#00041A"/>
<rect x="0.5" y="34" width="32" height="32" rx="4" fill="#15E087"/>
<path d="M11.5843 58.8536H8.20926L14.3541 41.3991H18.2576L24.411 58.8536H21.036L16.374 44.9786H16.2377L11.5843 58.8536ZM11.6951 52.0099H20.8996V54.5497H11.6951V52.0099Z" fill="#00041A"/>
<rect x="34.5" y="34" width="32" height="32" rx="4" fill="#15E087"/>
<path d="M53.7192 46.1974C53.6397 45.4531 53.3044 44.8735 52.7135 44.4588C52.1283 44.044 51.3669 43.8366 50.4294 43.8366C49.7703 43.8366 49.205 43.936 48.7334 44.1349C48.2618 44.3338 47.901 44.6036 47.651 44.9445C47.401 45.2855 47.2732 45.6747 47.2675 46.1122C47.2675 46.4758 47.3499 46.7911 47.5147 47.0582C47.6851 47.3252 47.9152 47.5525 48.205 47.74C48.4948 47.9218 48.8158 48.0752 49.1681 48.2002C49.5203 48.3252 49.8755 48.4303 50.2334 48.5156L51.8698 48.9247C52.5289 49.0781 53.1624 49.2855 53.7703 49.5468C54.384 49.8082 54.9323 50.1377 55.4152 50.5355C55.9039 50.9332 56.2902 51.4133 56.5743 51.9758C56.8584 52.5383 57.0005 53.1974 57.0005 53.9531C57.0005 54.9758 56.7391 55.8764 56.2164 56.6548C55.6936 57.4275 54.938 58.0326 53.9493 58.4701C52.9664 58.9019 51.776 59.1178 50.3783 59.1178C49.0203 59.1178 47.8414 58.9076 46.8414 58.4872C45.847 58.0667 45.0686 57.4531 44.5061 56.6463C43.9493 55.8394 43.6482 54.8565 43.6027 53.6974H46.7135C46.759 54.3053 46.9465 54.811 47.276 55.2144C47.6056 55.6178 48.0345 55.919 48.563 56.1178C49.097 56.3167 49.6936 56.4161 50.3527 56.4161C51.0402 56.4161 51.6425 56.3139 52.1595 56.1093C52.6823 55.8991 53.0914 55.6093 53.3868 55.24C53.6823 54.865 53.8328 54.4275 53.8385 53.9275C53.8328 53.473 53.6993 53.098 53.438 52.8025C53.1766 52.5014 52.8101 52.2514 52.3385 52.0525C51.8726 51.848 51.3272 51.6661 50.7022 51.507L48.7164 50.9957C47.2789 50.6264 46.1425 50.0667 45.3073 49.3167C44.4777 48.561 44.063 47.5582 44.063 46.3082C44.063 45.2798 44.3414 44.3792 44.8982 43.6065C45.4607 42.8338 46.2249 42.2343 47.1908 41.8082C48.1567 41.3764 49.2505 41.1605 50.472 41.1605C51.7107 41.1605 52.7959 41.3764 53.7277 41.8082C54.6652 42.2343 55.401 42.8281 55.9351 43.5894C56.4692 44.3451 56.7448 45.2144 56.7618 46.1974H53.7192Z" fill="#00041A"/>
<rect x="68.5" y="34" width="32" height="32" rx="4" fill="#15E087"/>
<path d="M83.2458 58.8536H77.3311V41.3991H83.3652C85.0981 41.3991 86.5867 41.7485 87.8311 42.4474C89.0811 43.1406 90.0413 44.1377 90.7117 45.4389C91.3822 46.74 91.7174 48.2968 91.7174 50.1093C91.7174 51.9275 91.3794 53.49 90.7032 54.7968C90.0328 56.1036 89.064 57.1065 87.797 57.8053C86.5356 58.5042 85.0186 58.8536 83.2458 58.8536ZM80.493 56.1178H83.0924C84.3083 56.1178 85.3225 55.8963 86.135 55.4531C86.9475 55.0042 87.5583 54.3366 87.9674 53.4502C88.3765 52.5582 88.5811 51.4445 88.5811 50.1093C88.5811 48.7741 88.3765 47.6661 87.9674 46.7855C87.5583 45.8991 86.9532 45.2372 86.1521 44.7997C85.3566 44.3565 84.368 44.1349 83.1862 44.1349H80.493V56.1178Z" fill="#00041A"/>
</svg>
